<svg xmlns="http://www.w3.org/2000/svg" width="24" height="24" fill="none"><path fill="#666" d="m6 21-.998.067.062.933H6v-1Zm12 0v1h.936l.062-.933L18 21ZM3 5H2v2h1V5Zm18 2h1V5h-1v2Zm-10 4v-1H9v1h2Zm-2 5v1h2v-1H9Zm6-5v-1h-2v1h2Zm-2 5v1h2v-1h-2ZM4.002 6.067l1 15 1.996-.134-1-15-1.996.134ZM6 22h12v-2H6v2Zm12.998-.933 1-15-1.996-.134-1 15 1.996.134ZM19 5H5v2h14V5ZM3 7h2V5H3v2Zm16 0h2V5h-2v2ZM9 11v5h2v-5H9Zm4 0v5h2v-5h-2Zm-1-7c1.396 0 2.572.955 2.905 2.25l1.937-.5A5.002 5.002 0 0 0 12 2v2ZM9.094 6.25A3.002 3.002 0 0 1 12 4V2a5.002 5.002 0 0 0-4.842 3.75l1.936.5Z"/></svg>